<svg xmlns="http://www.w3.org/2000/svg" viewBox="0 0 390 620" preserveAspectRatio="none">
  <defs>
    <radialGradient id="wash" cx="50%" cy="6%" r="88%">
      <stop offset="0" stop-color="#E7F1FF" stop-opacity=".92"/>
      <stop offset=".58" stop-color="#F1F6FF" stop-opacity=".42"/>
      <stop offset="1" stop-color="#F5F6FA" stop-opacity="0"/>
    </radialGradient>
    <linearGradient id="fade" x1="0" y1="0" x2="0" y2="1">
      <stop offset="0" stop-color="#F0F6FF" stop-opacity=".52"/>
      <stop offset="1" stop-color="#F5F6FA" stop-opacity="0"/>
    </linearGradient>
  </defs>
  <rect width="390" height="620" fill="url(#wash)"/>
  <path d="M-48 12C68 94 114 174 266 154c83-11 117-53 178-118V0H-48Z" fill="#DDEBFF" opacity=".30"/>
  <path d="M-22 34c97 77 154 128 289 97 61-14 93-43 146-96v79c-43 42-88 72-148 83C133 220 62 151-22 96Z" fill="#D6E7FF" opacity=".18"/>
  <path d="M-28 236c110-42 172-24 246 16 62 34 113 39 199-9v127c-74 34-140 21-204-13-74-39-135-48-241-3Z" fill="url(#fade)" opacity=".56"/>
</svg>
